<mxfile host="app.diagrams.net" modified="2024-03-14T12:39:06.918Z" agent="Mozilla/5.0 (Macintosh; Intel Mac OS X 10_15_7) AppleWebKit/537.36 (KHTML, like Gecko) Chrome/124.0.0.0 Safari/537.36" etag="LxtRIpqKiKZTcex55rlY" version="24.0.6" type="github">
  <diagram name="第 1 页" id="_pgjwLZcpYCOeipyEx6l">
    <mxGraphModel dx="2120" dy="1344" grid="1" gridSize="10" guides="1" tooltips="1" connect="1" arrows="1" fold="1" page="1" pageScale="1" pageWidth="827" pageHeight="1169" math="0" shadow="0">
      <root>
        <mxCell id="0" />
        <mxCell id="1" parent="0" />
        <mxCell id="dsxaSazf_r-asWUHJ368-59" value="" style="shape=cylinder3;whiteSpace=wrap;html=1;boundedLbl=1;backgroundOutline=1;size=15;" vertex="1" parent="1">
          <mxGeometry x="80" y="490" width="800" height="630" as="geometry" />
        </mxCell>
        <mxCell id="dsxaSazf_r-asWUHJ368-2" value="" style="fontColor=#0066CC;verticalAlign=top;verticalLabelPosition=bottom;labelPosition=center;align=center;html=1;outlineConnect=0;fillColor=#CCCCCC;strokeColor=#6881B3;gradientColor=none;gradientDirection=north;strokeWidth=2;shape=mxgraph.networks.pc;" vertex="1" parent="1">
          <mxGeometry x="150" y="260" width="100" height="70" as="geometry" />
        </mxCell>
        <mxCell id="dsxaSazf_r-asWUHJ368-83" style="edgeStyle=orthogonalEdgeStyle;rounded=0;orthogonalLoop=1;jettySize=auto;html=1;shape=link;" edge="1" parent="1" source="dsxaSazf_r-asWUHJ368-3" target="dsxaSazf_r-asWUHJ368-67">
          <mxGeometry relative="1" as="geometry">
            <Array as="points">
              <mxPoint x="550" y="295" />
              <mxPoint x="550" y="400" />
              <mxPoint x="930" y="400" />
              <mxPoint x="930" y="890" />
            </Array>
          </mxGeometry>
        </mxCell>
        <mxCell id="dsxaSazf_r-asWUHJ368-3" value="" style="fontColor=#0066CC;verticalAlign=top;verticalLabelPosition=bottom;labelPosition=center;align=center;html=1;outlineConnect=0;fillColor=#CCCCCC;strokeColor=#6881B3;gradientColor=none;gradientDirection=north;strokeWidth=2;shape=mxgraph.networks.pc;" vertex="1" parent="1">
          <mxGeometry x="381.75" y="260" width="100" height="70" as="geometry" />
        </mxCell>
        <mxCell id="dsxaSazf_r-asWUHJ368-4" value="" style="fontColor=#0066CC;verticalAlign=top;verticalLabelPosition=bottom;labelPosition=center;align=center;html=1;outlineConnect=0;fillColor=#CCCCCC;strokeColor=#6881B3;gradientColor=none;gradientDirection=north;strokeWidth=2;shape=mxgraph.networks.pc;" vertex="1" parent="1">
          <mxGeometry x="620" y="260" width="100" height="70" as="geometry" />
        </mxCell>
        <mxCell id="dsxaSazf_r-asWUHJ368-62" style="edgeStyle=orthogonalEdgeStyle;rounded=0;orthogonalLoop=1;jettySize=auto;html=1;shape=link;" edge="1" parent="1" source="dsxaSazf_r-asWUHJ368-6" target="dsxaSazf_r-asWUHJ368-39">
          <mxGeometry relative="1" as="geometry" />
        </mxCell>
        <mxCell id="dsxaSazf_r-asWUHJ368-6" value="&lt;font style=&quot;font-size: 16px;&quot;&gt;&lt;b&gt;192.167.128.1&lt;/b&gt;&lt;/font&gt;" style="text;html=1;align=center;verticalAlign=middle;resizable=0;points=[];autosize=1;strokeColor=none;fillColor=none;" vertex="1" parent="1">
          <mxGeometry x="135" y="340" width="130" height="30" as="geometry" />
        </mxCell>
        <mxCell id="dsxaSazf_r-asWUHJ368-64" style="edgeStyle=orthogonalEdgeStyle;rounded=0;orthogonalLoop=1;jettySize=auto;html=1;entryX=0.5;entryY=0;entryDx=0;entryDy=0;shape=link;" edge="1" parent="1" source="dsxaSazf_r-asWUHJ368-7" target="dsxaSazf_r-asWUHJ368-45">
          <mxGeometry relative="1" as="geometry" />
        </mxCell>
        <mxCell id="dsxaSazf_r-asWUHJ368-7" value="&lt;font style=&quot;font-size: 16px;&quot;&gt;&lt;b&gt;192.167.128.3&lt;/b&gt;&lt;/font&gt;" style="text;html=1;align=center;verticalAlign=middle;resizable=0;points=[];autosize=1;strokeColor=none;fillColor=none;" vertex="1" parent="1">
          <mxGeometry x="605" y="340" width="130" height="30" as="geometry" />
        </mxCell>
        <mxCell id="dsxaSazf_r-asWUHJ368-66" style="edgeStyle=orthogonalEdgeStyle;rounded=0;orthogonalLoop=1;jettySize=auto;html=1;entryX=0.5;entryY=0;entryDx=0;entryDy=0;shape=link;" edge="1" parent="1" source="dsxaSazf_r-asWUHJ368-8" target="dsxaSazf_r-asWUHJ368-42">
          <mxGeometry relative="1" as="geometry">
            <Array as="points">
              <mxPoint x="433" y="450" />
              <mxPoint x="433" y="450" />
            </Array>
          </mxGeometry>
        </mxCell>
        <mxCell id="dsxaSazf_r-asWUHJ368-8" value="&lt;font style=&quot;font-size: 16px;&quot;&gt;&lt;b&gt;192.167.128.2&lt;/b&gt;&lt;/font&gt;" style="text;html=1;align=center;verticalAlign=middle;resizable=0;points=[];autosize=1;strokeColor=none;fillColor=none;" vertex="1" parent="1">
          <mxGeometry x="369.25" y="340" width="130" height="30" as="geometry" />
        </mxCell>
        <mxCell id="dsxaSazf_r-asWUHJ368-9" value="beeSet" style="swimlane;fontStyle=0;childLayout=stackLayout;horizontal=1;startSize=30;horizontalStack=0;resizeParent=1;resizeParentMax=0;resizeLast=0;collapsible=1;marginBottom=0;whiteSpace=wrap;html=1;" vertex="1" parent="1">
          <mxGeometry x="330" y="830" width="140" height="120" as="geometry" />
        </mxCell>
        <mxCell id="dsxaSazf_r-asWUHJ368-10" value="bee-&lt;span style=&quot;text-align: center; text-wrap: nowrap;&quot;&gt;192.167.128.1&lt;/span&gt;" style="text;strokeColor=none;fillColor=none;align=left;verticalAlign=middle;spacingLeft=4;spacingRight=4;overflow=hidden;points=[[0,0.5],[1,0.5]];portConstraint=eastwest;rotatable=0;whiteSpace=wrap;html=1;" vertex="1" parent="dsxaSazf_r-asWUHJ368-9">
          <mxGeometry y="30" width="140" height="30" as="geometry" />
        </mxCell>
        <mxCell id="dsxaSazf_r-asWUHJ368-11" value="bee-&lt;span style=&quot;text-wrap: nowrap; text-align: center;&quot;&gt;192.167.128.2&lt;/span&gt;" style="text;strokeColor=none;fillColor=none;align=left;verticalAlign=middle;spacingLeft=4;spacingRight=4;overflow=hidden;points=[[0,0.5],[1,0.5]];portConstraint=eastwest;rotatable=0;whiteSpace=wrap;html=1;" vertex="1" parent="dsxaSazf_r-asWUHJ368-9">
          <mxGeometry y="60" width="140" height="30" as="geometry" />
        </mxCell>
        <mxCell id="dsxaSazf_r-asWUHJ368-12" value="bee-&lt;span style=&quot;text-wrap: nowrap; text-align: center;&quot;&gt;192.167.128.3&lt;/span&gt;" style="text;strokeColor=none;fillColor=none;align=left;verticalAlign=middle;spacingLeft=4;spacingRight=4;overflow=hidden;points=[[0,0.5],[1,0.5]];portConstraint=eastwest;rotatable=0;whiteSpace=wrap;html=1;" vertex="1" parent="dsxaSazf_r-asWUHJ368-9">
          <mxGeometry y="90" width="140" height="30" as="geometry" />
        </mxCell>
        <mxCell id="dsxaSazf_r-asWUHJ368-18" value="honeycomb" style="swimlane;fontStyle=0;childLayout=stackLayout;horizontal=1;startSize=30;horizontalStack=0;resizeParent=1;resizeParentMax=0;resizeLast=0;collapsible=1;marginBottom=0;whiteSpace=wrap;fontSize=13;textShadow=0;" vertex="1" parent="1">
          <mxGeometry x="520" y="780" width="140" height="300" as="geometry" />
        </mxCell>
        <mxCell id="dsxaSazf_r-asWUHJ368-22" value="bee-192.167.128.1" style="swimlane;fontStyle=0;childLayout=stackLayout;horizontal=1;startSize=30;horizontalStack=0;resizeParent=1;resizeParentMax=0;resizeLast=0;collapsible=1;marginBottom=0;whiteSpace=wrap;fontSize=13;textShadow=0;" vertex="1" parent="dsxaSazf_r-asWUHJ368-18">
          <mxGeometry y="30" width="140" height="90" as="geometry" />
        </mxCell>
        <mxCell id="dsxaSazf_r-asWUHJ368-23" value="corePoolSize" style="text;strokeColor=none;fillColor=none;align=left;verticalAlign=middle;spacingLeft=4;spacingRight=4;overflow=hidden;points=[[0,0.5],[1,0.5]];portConstraint=eastwest;rotatable=0;whiteSpace=wrap;fontSize=13;fontStyle=0;textShadow=0;" vertex="1" parent="dsxaSazf_r-asWUHJ368-22">
          <mxGeometry y="30" width="140" height="30" as="geometry" />
        </mxCell>
        <mxCell id="dsxaSazf_r-asWUHJ368-24" value="queueCapacity" style="text;strokeColor=none;fillColor=none;align=left;verticalAlign=middle;spacingLeft=4;spacingRight=4;overflow=hidden;points=[[0,0.5],[1,0.5]];portConstraint=eastwest;rotatable=0;whiteSpace=wrap;fontSize=13;fontStyle=0;textShadow=0;" vertex="1" parent="dsxaSazf_r-asWUHJ368-22">
          <mxGeometry y="60" width="140" height="30" as="geometry" />
        </mxCell>
        <mxCell id="dsxaSazf_r-asWUHJ368-26" value="bee-192.167.128.2" style="swimlane;fontStyle=0;childLayout=stackLayout;horizontal=1;startSize=30;horizontalStack=0;resizeParent=1;resizeParentMax=0;resizeLast=0;collapsible=1;marginBottom=0;whiteSpace=wrap;fontSize=13;textShadow=0;" vertex="1" parent="dsxaSazf_r-asWUHJ368-18">
          <mxGeometry y="120" width="140" height="90" as="geometry" />
        </mxCell>
        <mxCell id="dsxaSazf_r-asWUHJ368-27" value="corePoolSize" style="text;strokeColor=none;fillColor=none;align=left;verticalAlign=middle;spacingLeft=4;spacingRight=4;overflow=hidden;points=[[0,0.5],[1,0.5]];portConstraint=eastwest;rotatable=0;whiteSpace=wrap;fontSize=13;fontStyle=0;textShadow=0;" vertex="1" parent="dsxaSazf_r-asWUHJ368-26">
          <mxGeometry y="30" width="140" height="30" as="geometry" />
        </mxCell>
        <mxCell id="dsxaSazf_r-asWUHJ368-28" value="queueCapacity" style="text;strokeColor=none;fillColor=none;align=left;verticalAlign=middle;spacingLeft=4;spacingRight=4;overflow=hidden;points=[[0,0.5],[1,0.5]];portConstraint=eastwest;rotatable=0;whiteSpace=wrap;fontSize=13;fontStyle=0;textShadow=0;" vertex="1" parent="dsxaSazf_r-asWUHJ368-26">
          <mxGeometry y="60" width="140" height="30" as="geometry" />
        </mxCell>
        <mxCell id="dsxaSazf_r-asWUHJ368-30" value="bee-192.167.128.3" style="swimlane;fontStyle=0;childLayout=stackLayout;horizontal=1;startSize=30;horizontalStack=0;resizeParent=1;resizeParentMax=0;resizeLast=0;collapsible=1;marginBottom=0;whiteSpace=wrap;fontSize=13;textShadow=0;" vertex="1" parent="dsxaSazf_r-asWUHJ368-18">
          <mxGeometry y="210" width="140" height="90" as="geometry" />
        </mxCell>
        <mxCell id="dsxaSazf_r-asWUHJ368-31" value="corePoolSize" style="text;strokeColor=none;fillColor=none;align=left;verticalAlign=middle;spacingLeft=4;spacingRight=4;overflow=hidden;points=[[0,0.5],[1,0.5]];portConstraint=eastwest;rotatable=0;whiteSpace=wrap;fontSize=13;fontStyle=0;textShadow=0;" vertex="1" parent="dsxaSazf_r-asWUHJ368-30">
          <mxGeometry y="30" width="140" height="30" as="geometry" />
        </mxCell>
        <mxCell id="dsxaSazf_r-asWUHJ368-32" value="queueCapacity" style="text;strokeColor=none;fillColor=none;align=left;verticalAlign=middle;spacingLeft=4;spacingRight=4;overflow=hidden;points=[[0,0.5],[1,0.5]];portConstraint=eastwest;rotatable=0;whiteSpace=wrap;fontSize=13;fontStyle=0;textShadow=0;" vertex="1" parent="dsxaSazf_r-asWUHJ368-30">
          <mxGeometry y="60" width="140" height="30" as="geometry" />
        </mxCell>
        <mxCell id="dsxaSazf_r-asWUHJ368-39" value="bee-192.167.128.1" style="swimlane;fontStyle=0;childLayout=stackLayout;horizontal=1;startSize=30;horizontalStack=0;resizeParent=1;resizeParentMax=0;resizeLast=0;collapsible=1;marginBottom=0;whiteSpace=wrap;fontSize=13;textShadow=0;" vertex="1" parent="1">
          <mxGeometry x="110" y="530" width="180" height="90" as="geometry" />
        </mxCell>
        <mxCell id="dsxaSazf_r-asWUHJ368-40" value="corePoolSize" style="text;strokeColor=none;fillColor=none;align=left;verticalAlign=middle;spacingLeft=4;spacingRight=4;overflow=hidden;points=[[0,0.5],[1,0.5]];portConstraint=eastwest;rotatable=0;whiteSpace=wrap;fontSize=13;fontStyle=0;textShadow=0;" vertex="1" parent="dsxaSazf_r-asWUHJ368-39">
          <mxGeometry y="30" width="180" height="30" as="geometry" />
        </mxCell>
        <mxCell id="dsxaSazf_r-asWUHJ368-41" value="queueCapacity" style="text;strokeColor=none;fillColor=none;align=left;verticalAlign=middle;spacingLeft=4;spacingRight=4;overflow=hidden;points=[[0,0.5],[1,0.5]];portConstraint=eastwest;rotatable=0;whiteSpace=wrap;fontSize=13;fontStyle=0;textShadow=0;" vertex="1" parent="dsxaSazf_r-asWUHJ368-39">
          <mxGeometry y="60" width="180" height="30" as="geometry" />
        </mxCell>
        <mxCell id="dsxaSazf_r-asWUHJ368-42" value="bee-192.167.128.2" style="swimlane;fontStyle=0;childLayout=stackLayout;horizontal=1;startSize=30;horizontalStack=0;resizeParent=1;resizeParentMax=0;resizeLast=0;collapsible=1;marginBottom=0;whiteSpace=wrap;fontSize=13;textShadow=0;" vertex="1" parent="1">
          <mxGeometry x="340" y="530" width="186" height="90" as="geometry" />
        </mxCell>
        <mxCell id="dsxaSazf_r-asWUHJ368-43" value="corePoolSize" style="text;strokeColor=none;fillColor=none;align=left;verticalAlign=middle;spacingLeft=4;spacingRight=4;overflow=hidden;points=[[0,0.5],[1,0.5]];portConstraint=eastwest;rotatable=0;whiteSpace=wrap;fontSize=13;fontStyle=0;textShadow=0;" vertex="1" parent="dsxaSazf_r-asWUHJ368-42">
          <mxGeometry y="30" width="186" height="30" as="geometry" />
        </mxCell>
        <mxCell id="dsxaSazf_r-asWUHJ368-44" value="queueCapacity" style="text;strokeColor=none;fillColor=none;align=left;verticalAlign=middle;spacingLeft=4;spacingRight=4;overflow=hidden;points=[[0,0.5],[1,0.5]];portConstraint=eastwest;rotatable=0;whiteSpace=wrap;fontSize=13;fontStyle=0;textShadow=0;" vertex="1" parent="dsxaSazf_r-asWUHJ368-42">
          <mxGeometry y="60" width="186" height="30" as="geometry" />
        </mxCell>
        <mxCell id="dsxaSazf_r-asWUHJ368-45" value="bee-192.167.128.3" style="swimlane;fontStyle=0;childLayout=stackLayout;horizontal=1;startSize=30;horizontalStack=0;resizeParent=1;resizeParentMax=0;resizeLast=0;collapsible=1;marginBottom=0;whiteSpace=wrap;fontSize=13;textShadow=0;" vertex="1" parent="1">
          <mxGeometry x="580" y="530" width="180" height="90" as="geometry" />
        </mxCell>
        <mxCell id="dsxaSazf_r-asWUHJ368-46" value="corePoolSize" style="text;strokeColor=none;fillColor=none;align=left;verticalAlign=middle;spacingLeft=4;spacingRight=4;overflow=hidden;points=[[0,0.5],[1,0.5]];portConstraint=eastwest;rotatable=0;whiteSpace=wrap;fontSize=13;fontStyle=0;textShadow=0;" vertex="1" parent="dsxaSazf_r-asWUHJ368-45">
          <mxGeometry y="30" width="180" height="30" as="geometry" />
        </mxCell>
        <mxCell id="dsxaSazf_r-asWUHJ368-47" value="queueCapacity" style="text;strokeColor=none;fillColor=none;align=left;verticalAlign=middle;spacingLeft=4;spacingRight=4;overflow=hidden;points=[[0,0.5],[1,0.5]];portConstraint=eastwest;rotatable=0;whiteSpace=wrap;fontSize=13;fontStyle=0;textShadow=0;" vertex="1" parent="dsxaSazf_r-asWUHJ368-45">
          <mxGeometry y="60" width="180" height="30" as="geometry" />
        </mxCell>
        <mxCell id="dsxaSazf_r-asWUHJ368-48" value="&lt;span style=&quot;font-size: 13px;&quot;&gt;bee-192.167.128.3-task&lt;/span&gt;" style="swimlane;fontStyle=0;childLayout=stackLayout;horizontal=1;startSize=30;horizontalStack=0;resizeParent=1;resizeParentMax=0;resizeLast=0;collapsible=1;marginBottom=0;whiteSpace=wrap;html=1;" vertex="1" parent="1">
          <mxGeometry x="580" y="640" width="180" height="90" as="geometry" />
        </mxCell>
        <mxCell id="dsxaSazf_r-asWUHJ368-49" value="设置&lt;span style=&quot;font-size: 13px;&quot;&gt;corePoolSize&lt;/span&gt;" style="text;strokeColor=none;fillColor=none;align=left;verticalAlign=middle;spacingLeft=4;spacingRight=4;overflow=hidden;points=[[0,0.5],[1,0.5]];portConstraint=eastwest;rotatable=0;whiteSpace=wrap;html=1;" vertex="1" parent="dsxaSazf_r-asWUHJ368-48">
          <mxGeometry y="30" width="180" height="30" as="geometry" />
        </mxCell>
        <mxCell id="dsxaSazf_r-asWUHJ368-50" value="设置&lt;span style=&quot;font-size: 13px;&quot;&gt;queueCapacity&lt;/span&gt;" style="text;strokeColor=none;fillColor=none;align=left;verticalAlign=middle;spacingLeft=4;spacingRight=4;overflow=hidden;points=[[0,0.5],[1,0.5]];portConstraint=eastwest;rotatable=0;whiteSpace=wrap;html=1;" vertex="1" parent="dsxaSazf_r-asWUHJ368-48">
          <mxGeometry y="60" width="180" height="30" as="geometry" />
        </mxCell>
        <mxCell id="dsxaSazf_r-asWUHJ368-53" value="&lt;span style=&quot;font-size: 13px;&quot;&gt;bee-192.167.128.1-task&lt;/span&gt;" style="swimlane;fontStyle=0;childLayout=stackLayout;horizontal=1;startSize=30;horizontalStack=0;resizeParent=1;resizeParentMax=0;resizeLast=0;collapsible=1;marginBottom=0;whiteSpace=wrap;html=1;" vertex="1" parent="1">
          <mxGeometry x="110" y="640" width="180" height="90" as="geometry" />
        </mxCell>
        <mxCell id="dsxaSazf_r-asWUHJ368-54" value="设置&lt;span style=&quot;font-size: 13px;&quot;&gt;corePoolSize&lt;/span&gt;" style="text;strokeColor=none;fillColor=none;align=left;verticalAlign=middle;spacingLeft=4;spacingRight=4;overflow=hidden;points=[[0,0.5],[1,0.5]];portConstraint=eastwest;rotatable=0;whiteSpace=wrap;html=1;" vertex="1" parent="dsxaSazf_r-asWUHJ368-53">
          <mxGeometry y="30" width="180" height="30" as="geometry" />
        </mxCell>
        <mxCell id="dsxaSazf_r-asWUHJ368-55" value="设置&lt;span style=&quot;font-size: 13px;&quot;&gt;queueCapacity&lt;/span&gt;" style="text;strokeColor=none;fillColor=none;align=left;verticalAlign=middle;spacingLeft=4;spacingRight=4;overflow=hidden;points=[[0,0.5],[1,0.5]];portConstraint=eastwest;rotatable=0;whiteSpace=wrap;html=1;" vertex="1" parent="dsxaSazf_r-asWUHJ368-53">
          <mxGeometry y="60" width="180" height="30" as="geometry" />
        </mxCell>
        <mxCell id="dsxaSazf_r-asWUHJ368-56" value="&lt;span style=&quot;font-size: 13px;&quot;&gt;bee-192.167.128.2-task&lt;/span&gt;" style="swimlane;fontStyle=0;childLayout=stackLayout;horizontal=1;startSize=30;horizontalStack=0;resizeParent=1;resizeParentMax=0;resizeLast=0;collapsible=1;marginBottom=0;whiteSpace=wrap;html=1;" vertex="1" parent="1">
          <mxGeometry x="340" y="640" width="186" height="90" as="geometry" />
        </mxCell>
        <mxCell id="dsxaSazf_r-asWUHJ368-57" value="设置&lt;span style=&quot;font-size: 13px;&quot;&gt;corePoolSize&lt;/span&gt;" style="text;strokeColor=none;fillColor=none;align=left;verticalAlign=middle;spacingLeft=4;spacingRight=4;overflow=hidden;points=[[0,0.5],[1,0.5]];portConstraint=eastwest;rotatable=0;whiteSpace=wrap;html=1;" vertex="1" parent="dsxaSazf_r-asWUHJ368-56">
          <mxGeometry y="30" width="186" height="30" as="geometry" />
        </mxCell>
        <mxCell id="dsxaSazf_r-asWUHJ368-58" value="设置&lt;span style=&quot;font-size: 13px;&quot;&gt;queueCapacity&lt;/span&gt;" style="text;strokeColor=none;fillColor=none;align=left;verticalAlign=middle;spacingLeft=4;spacingRight=4;overflow=hidden;points=[[0,0.5],[1,0.5]];portConstraint=eastwest;rotatable=0;whiteSpace=wrap;html=1;" vertex="1" parent="dsxaSazf_r-asWUHJ368-56">
          <mxGeometry y="60" width="186" height="30" as="geometry" />
        </mxCell>
        <mxCell id="dsxaSazf_r-asWUHJ368-60" value="&lt;font style=&quot;font-size: 40px;&quot;&gt;&lt;b&gt;redis&lt;/b&gt;&lt;/font&gt;" style="text;html=1;align=center;verticalAlign=middle;resizable=0;points=[];autosize=1;strokeColor=none;fillColor=none;" vertex="1" parent="1">
          <mxGeometry x="420" y="1113" width="120" height="60" as="geometry" />
        </mxCell>
        <mxCell id="dsxaSazf_r-asWUHJ368-67" value="" style="html=1;verticalLabelPosition=bottom;align=center;labelBackgroundColor=#ffffff;verticalAlign=top;strokeWidth=2;strokeColor=#0080F0;shadow=0;dashed=0;shape=mxgraph.ios7.icons.locked;" vertex="1" parent="1">
          <mxGeometry x="720" y="855" width="60" height="70" as="geometry" />
        </mxCell>
        <mxCell id="dsxaSazf_r-asWUHJ368-74" value="" style="html=1;verticalLabelPosition=bottom;align=center;labelBackgroundColor=#ffffff;verticalAlign=top;strokeWidth=2;strokeColor=#0080F0;shadow=0;dashed=0;shape=mxgraph.ios7.icons.locked;" vertex="1" parent="1">
          <mxGeometry x="190" y="855" width="60" height="70" as="geometry" />
        </mxCell>
        <mxCell id="dsxaSazf_r-asWUHJ368-79" style="edgeStyle=orthogonalEdgeStyle;rounded=0;orthogonalLoop=1;jettySize=auto;html=1;entryX=0.136;entryY=0.2;entryDx=0;entryDy=0;entryPerimeter=0;shape=link;" edge="1" parent="1" source="dsxaSazf_r-asWUHJ368-2" target="dsxaSazf_r-asWUHJ368-74">
          <mxGeometry relative="1" as="geometry">
            <Array as="points">
              <mxPoint x="50" y="295" />
              <mxPoint x="50" y="870" />
              <mxPoint x="190" y="870" />
            </Array>
          </mxGeometry>
        </mxCell>
        <mxCell id="dsxaSazf_r-asWUHJ368-80" style="edgeStyle=orthogonalEdgeStyle;rounded=0;orthogonalLoop=1;jettySize=auto;html=1;shape=link;" edge="1" parent="1" source="dsxaSazf_r-asWUHJ368-3">
          <mxGeometry relative="1" as="geometry">
            <mxPoint x="192" y="900" as="targetPoint" />
            <Array as="points">
              <mxPoint x="432" y="240" />
              <mxPoint x="30" y="240" />
              <mxPoint x="30" y="900" />
              <mxPoint x="192" y="900" />
            </Array>
          </mxGeometry>
        </mxCell>
        <mxCell id="dsxaSazf_r-asWUHJ368-81" style="edgeStyle=orthogonalEdgeStyle;rounded=0;orthogonalLoop=1;jettySize=auto;html=1;entryX=0.008;entryY=0.969;entryDx=0;entryDy=0;entryPerimeter=0;shape=link;" edge="1" parent="1" source="dsxaSazf_r-asWUHJ368-4" target="dsxaSazf_r-asWUHJ368-74">
          <mxGeometry relative="1" as="geometry">
            <Array as="points">
              <mxPoint x="670" y="220" />
              <mxPoint x="10" y="220" />
              <mxPoint x="10" y="923" />
            </Array>
          </mxGeometry>
        </mxCell>
        <mxCell id="dsxaSazf_r-asWUHJ368-82" style="edgeStyle=orthogonalEdgeStyle;rounded=0;orthogonalLoop=1;jettySize=auto;html=1;shape=link;" edge="1" parent="1" source="dsxaSazf_r-asWUHJ368-4" target="dsxaSazf_r-asWUHJ368-67">
          <mxGeometry relative="1" as="geometry">
            <Array as="points">
              <mxPoint x="1010" y="295" />
              <mxPoint x="1010" y="920" />
            </Array>
          </mxGeometry>
        </mxCell>
        <mxCell id="dsxaSazf_r-asWUHJ368-84" style="edgeStyle=orthogonalEdgeStyle;rounded=0;orthogonalLoop=1;jettySize=auto;html=1;entryX=0.841;entryY=0.134;entryDx=0;entryDy=0;entryPerimeter=0;shape=link;" edge="1" parent="1" source="dsxaSazf_r-asWUHJ368-2" target="dsxaSazf_r-asWUHJ368-67">
          <mxGeometry relative="1" as="geometry">
            <Array as="points">
              <mxPoint x="310" y="295" />
              <mxPoint x="310" y="430" />
              <mxPoint x="840" y="430" />
              <mxPoint x="840" y="864" />
            </Array>
          </mxGeometry>
        </mxCell>
        <mxCell id="dsxaSazf_r-asWUHJ368-85" value="&lt;font style=&quot;font-size: 17px;&quot;&gt;&lt;b&gt;分布式锁1&lt;/b&gt;&lt;/font&gt;" style="text;html=1;align=center;verticalAlign=middle;resizable=0;points=[];autosize=1;strokeColor=none;fillColor=none;" vertex="1" parent="1">
          <mxGeometry x="170" y="940" width="100" height="30" as="geometry" />
        </mxCell>
        <mxCell id="dsxaSazf_r-asWUHJ368-86" value="&lt;font style=&quot;font-size: 17px;&quot;&gt;&lt;b&gt;分布式锁2&lt;/b&gt;&lt;/font&gt;" style="text;html=1;align=center;verticalAlign=middle;resizable=0;points=[];autosize=1;strokeColor=none;fillColor=none;" vertex="1" parent="1">
          <mxGeometry x="700" y="940" width="100" height="30" as="geometry" />
        </mxCell>
      </root>
    </mxGraphModel>
  </diagram>
</mxfile>
